<svg xmlns="http://www.w3.org/2000/svg" viewBox="0 0 32 32"><g data-name="Layer 2"><path fill="#fcae18" d="M31.56,7.8V12a3.92,3.92,0,0,1-3.91,3.91H9.48A3.92,3.92,0,0,1,5.57,12V10.88H5.18A1.62,1.62,0,0,0,3.57,12.5v5.08a1.61,1.61,0,0,0,1.61,1.61H20.94v9.66h-2V21.19H5.18a3.61,3.61,0,0,1-3.61-3.61V12.5A3.62,3.62,0,0,1,5.18,8.88h.39V7.8A3.92,3.92,0,0,1,9.48,3.88H27.65A3.92,3.92,0,0,1,31.56,7.8Z"/><path fill="#f94819" d="M31.56,7.8V12a3.92,3.92,0,0,1-3.91,3.91H23.93v-12h3.72A3.92,3.92,0,0,1,31.56,7.8Z"/><path d="M26.52,3.15H8.36a3.91,3.91,0,0,0-3.79,3H6.69a1.91,1.91,0,0,1,1.66-1H26.52a1.92,1.92,0,0,1,1.92,1.92v4.17a1.92,1.92,0,0,1-1.92,1.92H8.36a1.92,1.92,0,0,1-1.92-1.92V7.89h-2v.27H4.05A3.62,3.62,0,0,0,.44,11.77v5.08a3.62,3.62,0,0,0,3.61,3.61H17.82v1.76h2V18.47H4.05a1.62,1.62,0,0,1-1.61-1.61V11.77a1.62,1.62,0,0,1,1.61-1.61h.39v1.08a3.92,3.92,0,0,0,3.92,3.92H26.52a3.92,3.92,0,0,0,3.92-3.92V7.07A3.92,3.92,0,0,0,26.52,3.15Z"/><rect width="2" height="4.12" x="17.82" y="24"/></g></svg>